<svg width="34" height="25" viewBox="0 0 34 25" fill="none" xmlns="http://www.w3.org/2000/svg">
<path d="M26.9314 0.703125H7.10305C3.21277 0.703125 0.059082 3.85681 0.059082 7.7471V17.6592C0.059082 21.5494 3.21277 24.7031 7.10305 24.7031H26.9314C30.8216 24.7031 33.9753 21.5494 33.9753 17.6592V7.7471C33.9753 3.85681 30.8216 0.703125 26.9314 0.703125ZM22.1676 13.1854L12.8932 17.6087C12.6461 17.7265 12.3606 17.5464 12.3606 17.2726V8.14953C12.3606 7.87187 12.6536 7.69192 12.9012 7.81743L22.1756 12.5172C22.4513 12.6569 22.4466 13.0524 22.1676 13.1854Z" fill="#F61C0D"/>
<path d="M12.8932 17.6087L22.1676 13.1854C22.4466 13.0524 22.4513 12.6569 22.1756 12.5172L12.9012 7.81743C12.6536 7.69192 12.3606 7.87187 12.3606 8.14953V17.2726C12.3606 17.5464 12.6461 17.7265 12.8932 17.6087Z" fill="white"/>
</svg>
